<mxfile host="app.diagrams.net" modified="2023-10-06T11:52:11.236Z" agent="Mozilla/5.0 (Windows NT 10.0; Win64; x64) AppleWebKit/537.36 (KHTML, like Gecko) Chrome/113.0.0.0 Safari/537.36" version="22.0.3" etag="gmB-1npc5qPXQHwVta5y" type="github">
  <diagram name="PÃ¡gina-1" id="4iJLrc1ySzv443S_mlhY">
    <mxGraphModel>
      <root>
        <mxCell id="0" />
        <mxCell id="1" parent="0" />
      </root>
    </mxGraphModel>
  </diagram>
</mxfile>
